<svg width="34" height="43" viewBox="0 0 34 43" fill="none" xmlns="http://www.w3.org/2000/svg">
<mask id="mask0" mask-type="alpha" maskUnits="userSpaceOnUse" x="0" y="0" width="34" height="43">
<path d="M0 0H33.932V42.78H0V0Z" fill="white"/>
</mask>
<g mask="url(#mask0)">
<path fill-rule="evenodd" clip-rule="evenodd" d="M16.993 42.78C16.375 42.78 15.801 42.506 15.457 42.047L3.397 26.267C1.177 23.366 0 19.966 0 16.432C0 7.371 7.61 0 16.967 0C26.322 0 33.932 7.372 33.932 16.434C33.932 19.968 32.758 23.368 30.534 26.268L18.43 42.107L18.155 42.384L18.095 42.427C17.785 42.658 17.405 42.78 16.992 42.78" fill="#FEFEFE"/>
</g>
<path fill-rule="evenodd" clip-rule="evenodd" d="M16.966 1C8.187 1 1 7.918 1 16.434C1 19.805 2.155 23 4.195 25.66L16.258 41.448C16.523 41.802 17.144 41.892 17.499 41.626L17.677 41.448L29.74 25.66C31.78 23 32.934 19.805 32.934 16.434C32.934 7.918 25.748 1 16.967 1" fill="#D27E00"/>
<path fill-rule="evenodd" clip-rule="evenodd" d="M26.134 16.552C26.1467 17.7639 25.9189 18.9664 25.4638 20.0897C25.0088 21.2131 24.3356 22.2351 23.483 23.0966C22.6305 23.958 21.6156 24.6419 20.497 25.1087C19.3785 25.5754 18.1785 25.8157 16.9665 25.8157C15.7545 25.8157 14.5545 25.5754 13.436 25.1087C12.3174 24.6419 11.3025 23.958 10.45 23.0966C9.59744 22.2351 8.92419 21.2131 8.46915 20.0897C8.01412 18.9664 7.78634 17.7639 7.799 16.552C7.82422 14.1372 8.80119 11.8299 10.5177 10.1312C12.2342 8.43256 14.5516 7.47975 16.9665 7.47975C19.3814 7.47975 21.6988 8.43256 23.4153 10.1312C25.1318 11.8299 26.1088 14.1372 26.134 16.552Z" fill="#FEFEFE"/>
<path fill-rule="evenodd" clip-rule="evenodd" d="M23.987 16.552C23.9867 18.4144 23.2467 20.2003 21.9296 21.517C20.6125 22.8337 18.8264 23.5733 16.964 23.573C15.1017 23.5727 13.3157 22.8327 11.999 21.5156C10.6823 20.1985 9.94274 18.4123 9.943 16.55C9.94327 14.6876 10.6833 12.9017 12.0004 11.585C13.3175 10.2683 15.1037 9.52874 16.966 9.529C18.8284 9.52927 20.6143 10.2693 21.931 11.5864C23.2477 12.9035 23.9873 14.6896 23.987 16.552" fill="#D27E00"/>
</svg>
