<svg fill="none" height="50" viewBox="0 0 40 50" width="40" xmlns="http://www.w3.org/2000/svg"><g clip-rule="evenodd" fill-rule="evenodd"><path d="m20.0318 50c-.7285 0-1.4051-.3202-1.8107-.8567l-14.21544-18.4439c-2.61936-3.3894-4.00566-7.3631-4.00566-11.4923 0-10.59113 8.97206-19.2071 20.0012-19.2071 11.0279 0 19.9988 8.61597 19.9988 19.2071 0 4.1304-1.3839 8.1041-4.0057 11.4934l-14.2673 18.5118-.3242.3249-.0695.0502c-.3655.27-.8146.4126-1.3015.4126z" fill="#fff"/><path d="m18.5348 26.2576c-3.9739-.8298-6.5873-4.5616-5.7504-8.5003.837-3.9398 4.601-6.5309 8.5748-5.7011 2.9259.6217 5.2281 2.7991 5.7492 5.7011.732 3.941-1.8814 7.7756-5.7492 8.5003-.9419.208-1.8826.208-2.8244 0zm1.4641-25.08823c-10.35129 0-18.82117 8.08654-18.82117 18.03843 0 3.9398 1.35919 7.6716 3.76518 10.7816l14.21899 18.4521c.3148.4149 1.0457.5201 1.4641.2092l.2111-.2092 14.2202-18.4521c2.4059-3.11 3.764-6.8418 3.764-10.7816 0-9.95189-8.4699-18.03843-18.8224-18.03843z" fill="#364516"/></g></svg>